:SAMPLES-PER-SECOND 30
:FRAME-RANGE 1-2643
:FULLY-SPECIFIED
:DEGREES
1818
root  -29.3931 35.2095 -1.52117 169.164 37.3203 160.821
RightUpLeg  -30.0892 -5.26129 4.81149
RightLeg  51.3721 -15.3489 -19.8805
RightFoot  -25.4808 -1.50926 -10.7426
RightToes  5.38607e-012 1.2921e-014 -6.02303e-014
Spine  8.49682 0.68058 2.29468
Spine1  2.78988 2.23741 -5.9801
HEad  12.4249 -24.5192 -2.01984
LeftShoulder1  1.64343 -3.6589 -17.186
LeftArm  -2.31732 -16.8066 -36.1323
LeftForeArm  27.3604 -7.39823 -11.1539
LeftHand  -0.184437 1.54701 5.40993
RightShoulder  2.48154 5.07057 23.5365
RightArm  -16.87 22.1752 72.0732
RightForeArm  64.7815 -3.67029 4.99992
RightHand  0.120394 -5.86108 -29.3759
LeftUpLeg  -21.1227 -14.5997 8.15214
LeftLeg  64.3105 -0.238712 0.143789
LeftFoot  -6.41934 0.510594 -10.9616
LeftToes  -4.79707e-012 -5.93756e-011 -7.55542e-012
1819
root  -26.7669 34.6889 -3.2231 167.319 38.7958 161.481
RightUpLeg  -22.8205 -5.86031 7.05333
RightLeg  53.3098 -14.7987 -20.5543
RightFoot  -31.8702 -1.8414 -8.95087
RightToes  5.38607e-012 1.2921e-014 -6.02303e-014
Spine  8.61312 1.62454 4.89057
Spine1  4.53537 3.50389 -6.25262
HEad  11.9896 -24.9905 -2.18512
LeftShoulder1  1.45543 -2.94581 -16.8403
LeftArm  -3.29087 -14.8306 -33.8083
LeftForeArm  25.0386 -7.45275 -10.9977
LeftHand  -0.191464 1.75135 5.91518
RightShoulder  2.58992 5.61292 22.9225
RightArm  -13.8591 26.2666 74.4759
RightForeArm  66.2561 -3.89729 5.57608
RightHand  0.1479 -5.98202 -28.8169
LeftUpLeg  -27.3601 -14.2384 8.46523
LeftLeg  67.5819 1.43015 4.61315
LeftFoot  -9.95177 0.147292 -7.22761
LeftToes  -4.79707e-012 -5.93756e-011 -7.55542e-012
1820
root  -23.8877 34.4335 -4.96858 165.745 40.6259 160.268
RightUpLeg  -14.8654 -7.40484 7.37856
RightLeg  51.2498 -14.1204 -18.3886
RightFoot  -37.0279 -2.12901 -8.21242
RightToes  5.38607e-012 1.2921e-014 -6.02303e-014
Spine  6.8305 3.2117 6.01724
Spine1  6.04374 5.37478 -6.80322
HEad  14.2255 -25.8675 -2.0727
LeftShoulder1  1.18787 -1.83157 -16.6631
LeftArm  -1.17682 -12.5223 -32.0674
LeftForeArm  23.8444 -8.48959 -11.0025
LeftHand  -0.165009 1.27663 4.53049
RightShoulder  2.6876 6.19316 22.136
RightArm  -11.8418 28.6297 76.8051
RightForeArm  66.0437 -3.74352 5.94797
RightHand  0.190758 -6.15879 -28.5996
LeftUpLeg  -33.6324 -12.1369 6.3629
LeftLeg  66.0103 2.22618 6.20923
LeftFoot  -11.7281 0.0503301 -5.89191
LeftToes  -4.79707e-012 -5.93756e-011 -7.55542e-012
1821
root  -20.6417 34.5751 -6.64382 164.551 42.7752 159.007
RightUpLeg  -4.91527 -8.13252 7.39363
RightLeg  44.3712 -14.0866 -14.5855
RightFoot  -38.382 -2.18383 -7.97513
RightToes  5.38607e-012 1.2921e-014 -6.02303e-014
Spine  5.02086 4.99847 7.14559
Spine1  6.43621 7.63709 -8.81134
HEad  17.3036 -27.4109 -1.2338
LeftShoulder1  0.841003 -0.432835 -15.9734
LeftArm  5.22544 -9.04639 -30.9711
LeftForeArm  21.0882 -11.5451 -10.4585
LeftHand  -0.1498 1.5947 4.39448
RightShoulder  2.79726 6.79536 21.5005
RightArm  -11.0758 28.8374 78.8186
RightForeArm  66.4839 -3.04249 6.14636
RightHand  0.229732 -6.3339 -28.0991
LeftUpLeg  -37.3578 -8.58458 3.27633
LeftLeg  58.3854 2.41767 4.7921
LeftFoot  -12.104 0.0292596 -6.4857
LeftToes  -4.79707e-012 -5.93756e-011 -7.55542e-012
1822
root  -17.0837 35.0701 -8.28658 163.929 43.4406 158.086
RightUpLeg  4.99107 -6.978 7.96851
RightLeg  36.17 -14.4549 -11.3351
RightFoot  -33.2787 -1.50123 -6.56816
RightToes  5.38607e-012 1.2921e-014 -6.02303e-014
Spine  2.98938 6.26747 7.66632
Spine1  6.22235 9.21608 -10.8339
HEad  19.0021 -29.9609 0.837047
LeftShoulder1  0.624851 0.48446 -15.5907
LeftArm  17.0838 -4.70685 -29.2203
LeftForeArm  12.028 -16.6651 -8.29627
LeftHand  -0.165981 1.43729 4.7228
RightShoulder  2.92498 7.37885 21.1666
RightArm  -10.5994 27.6193 79.7236
RightForeArm  68.4029 -1.31457 6.7359
RightHand  0.350581 -6.84958 -27.6852
LeftUpLeg  -37.9308 -6.1507 -0.951215
LeftLeg  44.7798 1.19085 1.67277
LeftFoot  -11.6906 0.0416245 -9.26071
LeftToes  -4.79707e-012 -5.93756e-011 -7.55542e-012
1823
root  -13.4796 35.5171 -9.90051 164.368 43.2323 157.325
RightUpLeg  11.2389 -8.02594 7.24691
RightLeg  31.6963 -10.3954 -7.09446
RightFoot  -24.1887 -0.618978 -4.04119
RightToes  5.38607e-012 1.2921e-014 -6.02303e-014
Spine  0.116046 7.65925 8.09416
Spine1  7.21225 11.0996 -13.5011
HEad  18.7448 -34.1061 3.55826
LeftShoulder1  0.547952 0.851404 -15.7846
LeftArm  23.1985 -3.12094 -27.9433
LeftForeArm  8.16493 -18.8006 -7.06217
LeftHand  -0.171527 1.29566 4.73667
RightShoulder  2.99574 7.77485 20.8054
RightArm  -9.34662 26.0568 78.3333
RightForeArm  69.8578 2.01919 8.27456
RightHand  0.443091 -7.28659 -26.9632
LeftUpLeg  -37.6652 -5.15394 -5.40935
LeftLeg  30.8454 -2.18882 -1.06792
LeftFoot  -8.29838 0.474781 -15.9249
LeftToes  -4.79707e-012 -5.93756e-011 -7.55542e-012
1824
root  -10.1009 35.5919 -11.3172 165.636 43.6424 157.814
RightUpLeg  10.9129 -6.45307 8.52167
RightLeg  37.8705 -5.9553 -5.21916
RightFoot  -12.7773 -0.129648 -3.45442
RightToes  5.38607e-012 1.2921e-014 -6.02303e-014
Spine  -0.625901 8.90168 9.55042
Spine1  6.97582 12.8626 -16.3555
HEad  17.3641 -37.8858 5.70835
LeftShoulder1  0.424394 1.44076 -16.2547
LeftArm  26.539 -3.6088 -27.6643
LeftForeArm  7.55502 -19.7038 -6.49279
LeftHand  -0.15865 1.55149 4.62293
RightShoulder  2.96494 8.1498 19.5663
RightArm  -7.64978 24.8869 75.9349
RightForeArm  72.5564 5.45428 9.57661
RightHand  0.590677 -7.97385 -26.3781
LeftUpLeg  -38.2788 -4.86285 -8.04346
LeftLeg  25.4547 -4.96771 -2.24418
LeftFoot  -9.93995 0.301628 -19.6545
LeftToes  -4.79707e-012 -5.93756e-011 -7.55542e-012
